<svg width="44" height="44" viewBox="0 0 44 44" fill="none" xmlns="http://www.w3.org/2000/svg">
<g clip-path="url(#clip0_152_13)">
<path d="M0 38.3266C0 41.4603 2.54006 44 5.67338 44H38.3266C41.4603 44 44 41.4599 44 38.3266V5.67338C44 2.53972 41.4599 0 38.3266 0H5.67338C2.53972 0 0 2.54006 0 5.67338V38.3266Z" fill="#563D7C"/>
<path d="M18.2466 19.4628V13.2317H23.7315C24.2538 13.2317 24.7575 13.2753 25.2426 13.3623C25.7276 13.4494 26.1567 13.6048 26.5298 13.8287C26.903 14.0526 27.2015 14.3635 27.4253 14.7615C27.6492 15.1595 27.7611 15.6694 27.7611 16.2913C27.7611 17.4107 27.4253 18.2191 26.7537 18.7166C26.0821 19.2141 25.2239 19.4628 24.1792 19.4628H18.2466ZM12.3887 8.67969V35.3203H25.2986C26.4925 35.3203 27.6554 35.1711 28.7872 34.8726C29.919 34.5741 30.9264 34.1139 31.8095 33.492C32.6925 32.8702 33.3952 32.068 33.9176 31.0854C34.4399 30.1029 34.7011 28.94 34.7011 27.5968C34.7011 25.9302 34.2969 24.5061 33.4885 23.3246C32.6801 22.143 31.455 21.316 29.8133 20.8433C31.0073 20.2712 31.909 19.5374 32.5184 18.6419C33.1278 17.7465 33.4325 16.6271 33.4325 15.2839C33.4325 14.0401 33.2273 12.9954 32.8169 12.1497C32.4065 11.3039 31.8281 10.6261 31.0819 10.1162C30.3356 9.60626 29.4402 9.23937 28.3954 9.01549C27.3507 8.79162 26.194 8.67969 24.9254 8.67969H12.3887ZM18.2466 30.7683V23.4552H24.6269C25.8955 23.4552 26.9154 23.7474 27.6865 24.332C28.4576 24.9165 28.8432 25.8929 28.8432 27.261C28.8432 27.9575 28.725 28.5296 28.4887 28.9773C28.2524 29.4251 27.9353 29.7795 27.5373 30.0407C27.1393 30.3019 26.6791 30.4884 26.1567 30.6004C25.6344 30.7123 25.0871 30.7683 24.515 30.7683H18.2466Z" fill="white"/>
</g>
<defs>
<clipPath id="clip0_152_13">
<rect width="44" height="44" fill="white"/>
</clipPath>
</defs>
</svg>
