<svg width="44" height="44" viewBox="0 0 44 44" fill="none" xmlns="http://www.w3.org/2000/svg">
<g clip-path="url(#clip0_152_17)">
<path d="M43.1701 20.0395L23.959 0.82989C22.8535 -0.27663 21.059 -0.27663 19.952 0.82989L15.9628 4.81906L21.0233 9.87951C22.1993 9.48219 23.5477 9.74868 24.4853 10.6862C25.4272 11.6296 25.6917 12.9895 25.2847 14.1694L30.1617 19.0464C31.3416 18.6399 32.7031 18.9031 33.6454 19.8469C34.9624 21.1634 34.9624 23.2973 33.6454 24.6148C32.3279 25.9323 30.1941 25.9323 28.8761 24.6148C27.8855 23.6231 27.6407 22.1681 28.1423 20.9476L23.5941 16.3994L23.5936 28.3683C23.9146 28.5277 24.2178 28.7396 24.4853 29.0061C25.8023 30.3226 25.8023 32.4565 24.4853 33.7749C23.1678 35.092 21.0329 35.092 19.7174 33.7749C18.4004 32.4565 18.4004 30.3226 19.7174 29.0061C20.0428 28.6812 20.4193 28.4355 20.821 28.2703V16.1899C20.4193 16.0257 20.0433 15.7814 19.7174 15.4541C18.7195 14.4577 18.4795 12.9934 18.9908 11.7681L14.0028 6.77913L0.830252 19.9507C-0.276751 21.0582 -0.276751 22.8526 0.830252 23.9592L20.0413 43.1693C21.1474 44.2758 22.9414 44.2758 24.0488 43.1693L43.1701 24.0485C44.2766 22.9415 44.2766 21.146 43.1701 20.0395Z" fill="#DE4C36"/>
</g>
<defs>
<clipPath id="clip0_152_17">
<rect width="44" height="44" fill="white"/>
</clipPath>
</defs>
</svg>
