<svg width="44" height="44" viewBox="0 0 44 44" fill="none" xmlns="http://www.w3.org/2000/svg">
<path d="M7.76015 37.8053L4.58984 2.24414H39.4103L36.2361 37.8081L21.9916 41.7569L7.76015 37.8053Z" fill="#E34E26"/>
<path d="M22 5.15234V38.7377L33.5184 35.5448L36.2322 5.15234H22Z" fill="#EF662A"/>
<path d="M11.0762 9.51172L12.2518 22.7011H27.3689L26.8616 28.3583L21.9942 29.6743L17.1361 28.3602L16.8113 24.7278H12.4333L13.0593 31.7301L21.9932 34.2113L30.9384 31.7301L32.1376 18.3401H16.2409L15.8418 13.8737H32.5196H32.5329L32.9236 9.51172H11.0762Z" fill="white"/>
<path d="M21.9999 9.51172H11.0762L12.2518 22.7011H21.9999V18.3401H16.2409L15.8418 13.8737H21.9999V9.51172Z" fill="#EBEBEB"/>
<path d="M22.0002 29.6711L21.9945 29.673L17.1364 28.359L16.8116 24.7266H12.4336L13.0596 31.7288L21.9935 34.2101L22.0002 34.2082V29.6711Z" fill="#EBEBEB"/>
</svg>
