<svg width="61" height="8" viewBox="0 0 61 8" fill="none" xmlns="http://www.w3.org/2000/svg">
<g clip-path="url(#clip0_152_25)">
<path d="M26.3342 5.17049H30.3649L28.2336 1.73396L24.3219 7.94735H22.5416L27.2995 0.483749C27.5064 0.182188 27.8512 0 28.2336 0C28.6034 0 28.9482 0.175909 29.1488 0.471185L33.9255 7.94735H32.1453L31.3052 6.55892H27.2243L26.3342 5.17049ZM44.8268 6.55892V0.07539H43.316V7.19346C43.316 7.38821 43.3913 7.57669 43.5355 7.72118C43.6796 7.86568 43.874 7.94735 44.0871 7.94735H50.9764L51.8665 6.55892H44.8268ZM19.8335 5.39666C21.3004 5.39666 22.4915 4.20927 22.4915 2.73917C22.4915 1.26906 21.3004 0.07539 19.8335 0.07539H13.2244V7.94735H14.7346V1.46382H19.7332C20.4353 1.46382 20.9995 2.03552 20.9995 2.73917C20.9995 3.44281 20.4353 4.01451 19.7332 4.01451L15.4743 4.00823L19.984 7.94735H22.178L19.144 5.39666H19.8335ZM3.928 7.94735C1.75963 7.94735 0 6.18826 0 4.01451C0 1.84077 1.75963 0.07539 3.928 0.07539H8.49345C10.6624 0.07539 12.4208 1.84077 12.4208 4.01451C12.4208 6.18826 10.6624 7.94735 8.49345 7.94735H3.928ZM8.3919 6.55892C9.79673 6.55892 10.9345 5.42179 10.9345 4.01451C10.9345 2.60723 9.79673 1.46382 8.3919 1.46382H4.0289C2.62471 1.46382 1.48629 2.60723 1.48629 4.01451C1.48629 5.42179 2.62471 6.55892 4.0289 6.55892H8.3919ZM37.0787 7.94735C34.9097 7.94735 33.1482 6.18826 33.1482 4.01451C33.1482 1.84077 34.9097 0.07539 37.0787 0.07539H42.5011L41.6172 1.46382H37.179C35.7748 1.46382 34.6339 2.60723 34.6339 4.01451C34.6339 5.42179 35.7748 6.55892 37.179 6.55892H42.6265L41.7363 7.94735H37.0787ZM55.5525 6.55892C54.3928 6.55892 53.4086 5.77989 53.1077 4.70559H59.5645L60.4546 3.31715H53.1077C53.4086 2.24913 54.3928 1.46382 55.5525 1.46382H59.9845L60.8809 0.07539H55.4522C53.2833 0.07539 51.5218 1.84077 51.5218 4.01451C51.5218 6.18826 53.2833 7.94735 55.4522 7.94735H60.1099L61 6.55892H55.5525Z" fill="#EA1B22"/>
</g>
<defs>
<clipPath id="clip0_152_25">
<rect width="61" height="8" fill="white"/>
</clipPath>
</defs>
</svg>
