<svg width="44" height="33" viewBox="0 0 44 33" fill="none" xmlns="http://www.w3.org/2000/svg">
<g clip-path="url(#clip0_152_10)">
<path d="M37.8609 18.7205C36.3301 18.7284 34.9997 19.0917 33.8857 19.6288C33.4769 18.8311 33.0682 18.1202 32.9961 17.5989C32.9159 16.9907 32.8197 16.6195 32.9159 15.8928C33.0121 15.1662 33.4449 14.1315 33.4369 14.0525C33.4289 13.9735 33.3407 13.6023 32.4591 13.5944C31.5775 13.5865 30.8161 13.7603 30.7279 13.9893C30.6398 14.2184 30.4715 14.7397 30.3593 15.2768C30.207 16.0666 28.5961 18.8863 27.6744 20.3633C27.3779 19.7868 27.1214 19.2813 27.0653 18.8784C26.9851 18.2703 26.889 17.899 26.9851 17.1724C27.0813 16.4457 27.5141 15.411 27.5061 15.3321C27.4981 15.2531 27.4099 14.8818 26.5283 14.8739C25.6467 14.866 24.8853 15.0398 24.7972 15.2689C24.709 15.4979 24.6128 16.035 24.4285 16.5563C24.2442 17.0776 22.1043 21.7851 21.5432 23.0014C21.2547 23.6254 21.0063 24.123 20.83 24.4626C20.83 24.4626 20.8219 24.4863 20.7979 24.5258C20.6456 24.8181 20.5575 24.976 20.5575 24.976C20.5575 24.976 20.5575 24.976 20.5575 24.9839C20.4372 25.1972 20.309 25.3946 20.2449 25.3946C20.1968 25.3946 20.1086 24.826 20.2609 24.0519C20.5815 22.4169 21.3429 19.8736 21.3349 19.7868C21.3349 19.7394 21.4791 19.2971 20.838 19.068C20.2128 18.839 19.9884 19.2181 19.9323 19.2181C19.8762 19.2181 19.8361 19.3523 19.8361 19.3523C19.8361 19.3523 20.5334 16.4931 18.5057 16.4931C17.2394 16.4931 15.4922 17.8595 14.6267 19.0917C14.0817 19.3839 12.9196 20.0079 11.6773 20.6793C11.2045 20.9399 10.7156 21.2006 10.2587 21.4454C10.2267 21.4138 10.1946 21.3743 10.1626 21.3428C7.7101 18.76 3.17385 16.9354 3.3662 13.468C3.43833 12.2043 3.87913 8.88694 12.078 4.85875C18.8263 1.58091 24.1961 2.48923 25.1258 4.50332C26.4562 7.37835 22.2485 12.7177 15.2759 13.4917C12.615 13.784 11.2205 12.773 10.8678 12.3938C10.4992 11.9989 10.4431 11.9752 10.3068 12.0542C10.0824 12.1727 10.2267 12.5281 10.3068 12.7335C10.5152 13.2706 11.3728 14.2184 12.8234 14.6844C14.1057 15.0951 17.2234 15.3242 20.9983 13.8866C25.2219 12.2754 28.5239 7.79696 27.5542 4.04521C26.5844 0.238177 20.1728 -1.01767 14.1057 1.107C10.4992 2.37075 6.58806 4.36115 3.77494 6.95183C0.432867 10.0322 -0.0960942 12.7098 0.120299 13.8314C0.897713 17.8122 6.46784 20.4028 8.69589 22.3222C8.58369 22.3853 8.4795 22.4406 8.39134 22.488C7.27731 23.033 3.02959 25.2209 1.97167 27.5351C0.76948 30.1574 2.16401 32.0372 3.08569 32.29C5.94689 33.0719 8.88824 31.666 10.4671 29.3438C12.046 27.0217 11.8536 24.0045 11.1243 22.6223C11.1163 22.6065 11.1083 22.5907 11.0922 22.5749C11.3808 22.409 11.6773 22.2353 11.9658 22.0694C12.5349 21.7377 13.0959 21.4296 13.5768 21.1769C13.3043 21.9114 13.1039 22.7882 13.0077 24.0519C12.8875 25.5368 13.5046 27.464 14.3141 28.2223C14.6748 28.554 15.0995 28.5619 15.372 28.5619C16.3177 28.5619 16.7425 27.7879 17.2154 26.8716C17.7924 25.7501 18.3134 24.4468 18.3134 24.4468C18.3134 24.4468 17.6642 27.9695 19.4274 27.9695C20.0686 27.9695 20.7177 27.1481 21.0063 26.7295V26.7374C21.0063 26.7374 21.0223 26.7137 21.0544 26.6584C21.1185 26.5557 21.1585 26.4925 21.1585 26.4925V26.4767C21.415 26.0344 21.9921 25.0313 22.8496 23.3647C23.9556 21.2164 25.0216 18.5309 25.0216 18.5309C25.0216 18.5309 25.1177 19.1865 25.4463 20.2765C25.6387 20.9162 26.0394 21.6192 26.36 22.2985C26.1035 22.6539 25.9432 22.8513 25.9432 22.8513C25.9432 22.8513 25.9432 22.8513 25.9513 22.8592C25.7429 23.1278 25.5185 23.42 25.27 23.7044C24.3964 24.7312 23.3545 25.908 23.2103 26.2477C23.042 26.6505 23.082 26.9427 23.4026 27.1797C23.6351 27.3534 24.0518 27.3771 24.4766 27.3534C25.262 27.2982 25.815 27.1086 26.0875 26.9901C26.5123 26.84 27.0092 26.611 27.474 26.2714C28.3316 25.6474 28.8525 24.7549 28.8044 23.578C28.7804 22.9303 28.564 22.2827 28.2995 21.6745C28.3797 21.5639 28.4518 21.4533 28.532 21.3428C29.8864 19.3918 30.9363 17.2514 30.9363 17.2514C30.9363 17.2514 31.0325 17.9069 31.3611 18.9969C31.5214 19.5498 31.85 20.1501 32.1385 20.7346C30.8642 21.7535 30.0788 22.9382 29.7983 23.7123C29.2933 25.1498 29.6861 25.7975 30.4314 25.9475C30.768 26.0186 31.2489 25.8606 31.6015 25.7106C32.0504 25.5684 32.5793 25.3236 33.0842 24.9602C33.9418 24.3363 34.7673 23.4674 34.7192 22.2906C34.6952 21.7535 34.5509 21.2243 34.3505 20.7109C35.4325 20.2686 36.827 20.0237 38.6063 20.2291C42.4212 20.6714 43.1746 23.0172 43.0303 24.0045C42.8861 24.9918 42.0846 25.5289 41.8201 25.6948C41.5556 25.8606 41.4675 25.9159 41.4915 26.0344C41.5236 26.2082 41.6518 26.2003 41.8762 26.1687C42.1888 26.1134 43.8799 25.3709 43.952 23.5543C44.0722 21.2322 41.8281 18.6968 37.8609 18.7205ZM8.43141 28.4987C7.16511 29.8572 5.4019 30.3706 4.64052 29.9362C3.82303 29.4702 4.14361 27.464 5.69844 26.0265C6.64416 25.1498 7.86238 24.3363 8.67185 23.8386C8.85618 23.7281 9.12868 23.5701 9.45727 23.3726C9.51338 23.341 9.54544 23.3253 9.54544 23.3253C9.60955 23.2858 9.67367 23.2463 9.73779 23.2068C10.3068 25.2604 9.76183 27.0691 8.43141 28.4987ZM17.6482 22.3222C17.2074 23.3805 16.2857 26.0897 15.7247 25.9396C15.2438 25.8133 14.9473 23.7597 15.6285 21.7298C15.9731 20.7109 16.7024 19.4945 17.1272 19.0206C17.8165 18.2624 18.5779 18.0096 18.7622 18.3177C18.9946 18.7205 17.9207 21.6587 17.6482 22.3222ZM25.254 25.908C25.0697 26.0028 24.8933 26.066 24.8132 26.0186C24.7571 25.987 24.8933 25.8606 24.8933 25.8606C24.8933 25.8606 25.8471 24.8496 26.2238 24.3915C26.4402 24.123 26.6966 23.8071 26.9691 23.4516V23.5543C26.9691 24.7628 25.783 25.5763 25.254 25.908ZM31.1207 24.589C30.9844 24.4942 31.0085 24.1783 31.4653 23.191C31.6416 22.804 32.0584 22.1563 32.7717 21.5323C32.8518 21.7851 32.9079 22.0299 32.8999 22.259C32.8919 23.7834 31.7859 24.352 31.1207 24.589Z" fill="#CD6799"/>
</g>
<defs>
<clipPath id="clip0_152_10">
<rect width="44" height="32.5217" fill="white"/>
</clipPath>
</defs>
</svg>
