<svg width="44" height="44" viewBox="0 0 44 44" fill="none" xmlns="http://www.w3.org/2000/svg">
<g clip-path="url(#clip0_152_23)">
<path d="M40.0172 2.29135C39.3983 3.76927 38.6132 5.17272 37.6676 6.4616C33.5301 2.32572 27.914 0 22.063 0C9.95989 0 0 9.96736 0 22.0829C0 28.1263 2.47564 33.9119 6.85387 38.0822L7.66762 38.804C11.6447 42.1551 16.6819 43.9996 21.8797 43.9996C33.3868 43.9996 43.0602 34.9831 43.8797 23.492C44.4814 17.8668 42.8309 10.7521 40.0172 2.29135ZM9.98854 38.2082C9.63324 38.6493 9.08883 38.9071 8.52149 38.9071C7.48424 38.9071 6.6361 38.0535 6.6361 37.0167C6.6361 35.9799 7.48997 35.1264 8.52149 35.1264C8.95129 35.1264 9.37536 35.2753 9.70774 35.5502C10.5158 36.2033 10.6418 37.4005 9.98854 38.2082ZM39.9255 31.5977C34.4814 38.8555 22.8539 36.4095 15.3983 36.7589C15.3983 36.7589 14.0745 36.8391 12.745 37.0568C12.745 37.0568 13.2436 36.8449 13.8911 36.5985C19.1232 34.7769 21.5989 34.4218 24.7794 32.7892C30.7679 29.7417 36.6877 23.0739 37.9198 16.1368C35.639 22.8104 28.7278 28.5445 22.4298 30.8759C18.1146 32.4684 10.3209 34.015 10.3209 34.015L10.0057 33.8489C4.69914 31.2654 4.53868 19.7686 14.1834 16.0566C18.4069 14.4298 22.447 15.3234 27.0086 14.235C31.8797 13.0779 37.5129 9.42317 39.8052 4.65716C42.3725 12.2816 45.4613 24.2195 39.9255 31.5977Z" fill="#10C8A0"/>
</g>
<defs>
<clipPath id="clip0_152_23">
<rect width="44" height="44" fill="white"/>
</clipPath>
</defs>
</svg>
